<?xml version="1.0" encoding="UTF-8" standalone="no"?>
<svg
   width="192"
   height="192"
   viewBox="0 0 192 192"
   fill="none"
   version="1.1"
   id="svg6"
   sodipodi:docname="barq.svg"
   xml:space="preserve"
   inkscape:version="1.2.2 (b0a8486541, 2022-12-01)"
   xmlns:inkscape="http://www.inkscape.org/namespaces/inkscape"
   xmlns:sodipodi="http://sodipodi.sourceforge.net/DTD/sodipodi-0.dtd"
   xmlns="http://www.w3.org/2000/svg"
   xmlns:svg="http://www.w3.org/2000/svg"><defs
     id="defs10"><rect
       x="24.265475"
       y="45.999816"
       width="131.69602"
       height="74.129802"
       id="rect3061" /></defs><sodipodi:namedview
     id="namedview8"
     pagecolor="#ffffff"
     bordercolor="#000000"
     borderopacity="0.25"
     inkscape:showpageshadow="2"
     inkscape:pageopacity="0.0"
     inkscape:pagecheckerboard="0"
     inkscape:deskcolor="#d1d1d1"
     showgrid="false"
     inkscape:zoom="0.59001893"
     inkscape:cx="-201.68844"
     inkscape:cy="344.05676"
     inkscape:window-width="2256"
     inkscape:window-height="1435"
     inkscape:window-x="0"
     inkscape:window-y="0"
     inkscape:window-maximized="1"
     inkscape:current-layer="g2279" /><g
     id="g2279"
     transform="translate(-21.718752,-22.769058)"
     style="stroke-width:6;stroke-dasharray:none"><path
       style="display:none;fill:none;stroke:#000000;stroke-width:6;stroke-dasharray:none;stroke-opacity:1"
       d="m 56.438235,157.37205 v -2.65485 l -2.124604,-0.29057 c -1.168533,-0.15982 -2.543209,-0.4489 -3.054837,-0.6424 -0.554137,-0.20959 -0.930232,-0.19484 -0.930232,0.0365 0,0.43291 5.442589,6.2062 5.850705,6.2062 0.142433,0 0.258968,-1.19469 0.258968,-2.65486 z"
       id="path2251" /><path
       style="fill:none;stroke:#000000;stroke-width:6;stroke-opacity:1;stroke-dasharray:none"
       d="m 62.35748,176.50216 c 1.456442,-0.94377 10.182956,-6.47865 19.392254,-12.29973 l 16.744177,-10.58378 37.415999,-0.20672 37.416,-0.20672 2.2739,-0.92729 c 4.58746,-1.87074 8.57147,-5.85476 10.44222,-10.44221 l 0.92729,-2.2739 0.12978,-36.58913 c 0.0954,-26.896136 0.001,-37.191519 -0.356,-38.863031 -1.45396,-6.805995 -6.52669,-12.064084 -13.41715,-13.907444 -1.67965,-0.449344 -12.99554,-0.553017 -60.36172,-0.553017 -47.366183,0 -58.682076,0.10367 -60.361727,0.553017 -6.608383,1.767895 -11.620105,6.669962 -13.225396,12.936026 -0.56676,2.212282 -0.632183,7.06546 -0.53211,39.472989 l 0.114095,36.95059 0.927288,2.2739 c 2.547764,6.24764 8.301539,10.66762 14.969592,11.49946 l 2.294325,0.2862 0.206719,11.78158 c 0.113698,6.47986 0.357234,12.01413 0.541196,12.29836 0.573181,0.88562 1.716548,0.57815 4.459301,-1.19915 z"
       id="path2205" /><path
       style="fill:none;stroke:#000000;stroke-width:6;stroke-opacity:1;stroke-dasharray:none"
       d="m 89.081088,174.83135 18.508422,-11.70367 37.20929,-0.21174 c 41.81287,-0.23793 39.05191,-0.0242 44.11004,-3.41463 1.80948,-1.21287 3.14605,-2.55062 4.36424,-4.36804 3.38278,-5.04687 3.20528,-2.58185 3.20528,-44.51202 V 73.41197 l -0.93416,-2.480619 c -1.25948,-3.344486 -3.36509,-6.304591 -5.81204,-8.170662 -1.11434,-0.849802 -2.13234,-1.545095 -2.26223,-1.545095 -0.12992,0 -0.022,0.604651 0.23993,1.343669 0.65679,1.853633 0.92719,71.632647 0.29356,75.762237 -1.22702,7.99721 -7.42551,14.46681 -15.25073,15.9178 -1.37277,0.25455 -15.90011,0.41294 -37.87379,0.41294 H 99.232095 l -16.183038,10.19205 -16.183036,10.19205 v 5.84928 c 0,6.64883 0.177728,7.12386 2.328987,6.22501 0.757709,-0.3166 9.706443,-5.84227 19.88608,-12.27928 z"
       id="path2203" /><text
       xml:space="preserve"
       transform="translate(28.767568,60.375235)"
       id="text3059"
       style="font-size:37.3333px;line-height:0;letter-spacing:3px;white-space:pre;shape-inside:url(#rect3061);fill:none;fill-opacity:0;stroke:#000000;stroke-width:4;stroke-linecap:round;stroke-linejoin:round;stroke-dasharray:none;stroke-opacity:1;paint-order:stroke fill markers"><tspan
         x="24.265625"
         y="56.635331"
         id="tspan4583"><tspan
           style="font-family:Cantarell;-inkscape-font-specification:Cantarell"
           id="tspan4581">BARQ!</tspan></tspan></text></g></svg>
