<?xml version="1.0" encoding="UTF-8" standalone="no"?>
<!-- Created with Inkscape (http://www.inkscape.org/) -->

<svg
   width="192"
   height="192"
   viewBox="0 0 50.800001 50.800001"
   version="1.1"
   id="svg21311"
   xml:space="preserve"
   inkscape:version="1.2.2 (b0a8486541, 2022-12-01)"
   sodipodi:docname="funkwhale.svg"
   xmlns:inkscape="http://www.inkscape.org/namespaces/inkscape"
   xmlns:sodipodi="http://sodipodi.sourceforge.net/DTD/sodipodi-0.dtd"
   xmlns="http://www.w3.org/2000/svg"
   xmlns:svg="http://www.w3.org/2000/svg"><sodipodi:namedview
     id="namedview21313"
     pagecolor="#ffffff"
     bordercolor="#000000"
     borderopacity="0.25"
     inkscape:showpageshadow="2"
     inkscape:pageopacity="0.0"
     inkscape:pagecheckerboard="0"
     inkscape:deskcolor="#d1d1d1"
     inkscape:document-units="mm"
     showgrid="true"
     inkscape:zoom="3.0958348"
     inkscape:cx="98.034946"
     inkscape:cy="87.698478"
     inkscape:window-width="2031"
     inkscape:window-height="1074"
     inkscape:window-x="26"
     inkscape:window-y="23"
     inkscape:window-maximized="0"
     inkscape:current-layer="g18"
     showguides="true"><inkscape:grid
       dotted="false"
       originx="1.3229167"
       type="xygrid"
       id="grid2253"
       empspacing="3" /></sodipodi:namedview><defs
     id="defs21308" /><g
     inkscape:label="Layer 1"
     inkscape:groupmode="layer"
     id="layer1"><g
       style="fill:#44739e"
       id="g1885"
       transform="matrix(2.3518519,0,0,2.3518519,-2.8222228,-2.8222228)"><g
         id="g18"
         transform="matrix(0.09708738,0,0,0.09708738,-0.42718464,-1.0083319)">
	<g
   id="g16"
   style="fill:none;stroke:#000000;stroke-width:9.27;stroke-linecap:round;stroke-linejoin:round;stroke-dasharray:none;stroke-opacity:1"
   transform="matrix(0.95238092,0,0,0.95238092,6.0952422,6.383269)">
		<g
   id="g12"
   style="fill:none;stroke:#000000;stroke-width:9.27;stroke-linecap:round;stroke-linejoin:round;stroke-dasharray:none;stroke-opacity:1">
			<path
   class="st1"
   d="m 128,157.1 c 17.7,0 32.1,-14.4 32.1,-32.1 0,-0.9 -0.8,-1.7 -1.7,-1.7 h -12.1 c -0.9,0 -1.7,0.8 -1.7,1.7 0,9.1 -7.4,16.6 -16.6,16.6 -9.1,0 -16.6,-7.4 -16.6,-16.6 0,-0.9 -0.8,-1.7 -1.7,-1.7 H 97.6 c -0.9,0 -1.7,0.8 -1.7,1.7 0,17.8 14.4,32.1 32.1,32.1 z"
   id="path6"
   inkscape:connector-curvature="0"
   style="fill:none;stroke:#000000;stroke-width:9.27;stroke-linecap:round;stroke-linejoin:round;stroke-dasharray:none;stroke-opacity:1" />
			<path
   class="st1"
   d="m 128,187.4 c 34.3,0 62.3,-28 62.3,-62.3 0,-0.9 -0.8,-1.7 -1.7,-1.7 h -12.1 c -0.9,0 -1.7,0.8 -1.7,1.7 0,25.9 -21,46.9 -46.9,46.9 C 102,172 81,151 81,125.1 c 0,-0.9 -0.8,-1.7 -1.7,-1.7 H 67.4 c -0.9,0 -1.7,0.8 -1.7,1.7 -0.2,34.3 27.8,62.3 62.3,62.3 z"
   id="path8"
   inkscape:connector-curvature="0"
   style="fill:none;stroke:#000000;stroke-width:9.27;stroke-linecap:round;stroke-linejoin:round;stroke-dasharray:none;stroke-opacity:1" />
			<path
   class="st1"
   d="m 219,123.4 h -12.1 c -0.9,0 -1.7,0.8 -1.7,1.7 0,42.6 -34.8,77.3 -77.3,77.3 -42.6,0 -77.3,-34.6 -77.3,-77.3 0,-0.9 -0.8,-1.7 -1.7,-1.7 H 37 c -0.9,0 -1.7,0.8 -1.7,1.7 0,51.1 41.6,92.7 92.7,92.7 51.1,0 92.7,-41.6 92.7,-92.7 0,-0.9 -0.8,-1.7 -1.7,-1.7 z"
   id="path10"
   inkscape:connector-curvature="0"
   style="fill:none;stroke:#000000;stroke-width:9.27;stroke-linecap:round;stroke-linejoin:round;stroke-dasharray:none;stroke-opacity:1" />
		</g>
		<path
   class="st2"
   d="m 86.3,83.3 c 6.2,3.2 12.9,3.8 18.9,7.3 3.9,2.3 6.4,4.8 8.8,8.6 3.8,5.7 3.6,12.9 3.6,12.9 l 0.5,7.9 c 0,0 3,7.9 9.7,7.9 7.1,0 9.7,-7.9 9.7,-7.9 l 0.5,-7.9 c 0,0 -0.2,-7.1 3.6,-12.9 2.4,-3.8 4.8,-6.5 8.8,-8.6 6,-3.5 12.7,-4.1 18.9,-7.3 6.2,-3.2 12.2,-7.3 16.3,-13 4.1,-5.7 6,-13.3 3.8,-20 -11.8,-0.6 -25.4,0.8 -35.8,6.4 -14.5,7.7 -23.3,5 -25.9,16.5 h -0.2 c -2.6,-11.6 -11.3,-8.8 -25.9,-16.5 -10.4,-5.6 -24,-7 -35.8,-6.4 -2.3,6.7 -0.3,14.2 3.8,20 4.4,5.8 10.5,9.9 16.7,13 z"
   id="path14"
   inkscape:connector-curvature="0"
   style="fill:none;stroke:#000000;stroke-width:9.27;stroke-linecap:round;stroke-linejoin:round;stroke-dasharray:none;stroke-opacity:1" />
	</g>
</g></g></g><style
     type="text/css"
     id="style2">
	.st0{fill:#FFFFFF;}
	.st1{fill:#000000;}
	.st2{fill:#000000;}
</style></svg>
