<?xml version="1.0" encoding="UTF-8" standalone="no"?>
<svg
   width="192"
   height="192"
   viewBox="0 0 192 192"
   fill="none"
   version="1.1"
   id="svg6"
   sodipodi:docname="lemmy.svg"
   xml:space="preserve"
   inkscape:version="1.2.2 (b0a8486541, 2022-12-01)"
   xmlns:inkscape="http://www.inkscape.org/namespaces/inkscape"
   xmlns:sodipodi="http://sodipodi.sourceforge.net/DTD/sodipodi-0.dtd"
   xmlns="http://www.w3.org/2000/svg"
   xmlns:svg="http://www.w3.org/2000/svg"><defs
     id="defs10" /><sodipodi:namedview
     id="namedview8"
     pagecolor="#ffffff"
     bordercolor="#000000"
     borderopacity="0.25"
     inkscape:showpageshadow="2"
     inkscape:pageopacity="0.0"
     inkscape:pagecheckerboard="0"
     inkscape:deskcolor="#d1d1d1"
     showgrid="false"
     inkscape:zoom="2.7407673"
     inkscape:cx="94.499083"
     inkscape:cy="127.70146"
     inkscape:window-width="2256"
     inkscape:window-height="1435"
     inkscape:window-x="0"
     inkscape:window-y="0"
     inkscape:window-maximized="1"
     inkscape:current-layer="svg6" /><g
     inkscape:label="Layer 1"
     id="layer1"
     transform="matrix(0.16820164,0,0,0.16820164,9.8807601,0.11838398)"
     style="enable-background:new;display:inline"><path
       id="path1087"
       style="display:inline;opacity:1;fill:none;fill-opacity:1;stroke:#000000;stroke-width:71.3429;stroke-linecap:round;stroke-linejoin:round;stroke-miterlimit:4;stroke-dasharray:none;stroke-opacity:1"
       d="m 716.85595,362.96478 c 15.29075,-21.36763 35.36198,-41.10921 56.50979,-53.31749 66.66377,-38.48393 137.02617,-33.22172 170.08018,22.43043 33.09493,55.72093 14.98656,117.48866 -47.64399,159.85496 -31.95554,19.26819 -54.91172,27.13212 -89.20746,31.75376 M 307.14407,362.96478 C 291.85332,341.59715 271.78209,321.85557 250.63429,309.64729 183.97051,271.16336 113.60811,276.42557 80.554051,332.07772 47.459131,387.79865 65.56752,449.56638 128.19809,491.93268 c 31.95554,19.26819 54.02421,30.08629 88.31995,34.70793"
       inkscape:connector-curvature="0"
       inkscape:label="ears"
       sodipodi:insensitive="true"
       sodipodi:nodetypes="csscccsscc" /><path
       id="path1084"
       style="display:inline;opacity:1;fill:none;fill-opacity:1;stroke:#000000;stroke-width:47.56196194;stroke-linecap:round;stroke-linejoin:round;stroke-miterlimit:4;stroke-dasharray:none;stroke-opacity:1"
       d="m 610.4991,644.28932 c 0,23.11198 18.70595,41.84795 41.78091,41.84795 23.07495,0 41.7809,-18.73597 41.7809,-41.84795 0,-23.112 -18.70594,-41.84796 -41.7809,-41.84796 -23.07496,0 -41.78091,18.73596 -41.78091,41.84796 z m -280.56002,0 c 0,23.32492 18.87829,42.23352 42.16586,42.23352 23.28755,0 42.16585,-18.9086 42.16585,-42.23352 0,-23.32494 -18.87829,-42.23353 -42.16585,-42.23353 -23.28757,0 -42.16586,18.90859 -42.16586,42.23353 z"
       inkscape:connector-curvature="0"
       inkscape:label="eyes"
       sodipodi:nodetypes="ssssssssss"
       sodipodi:insensitive="true" /><path
       style="display:inline;opacity:1;fill:none;fill-opacity:1;stroke:#000000;stroke-width:71.3429;stroke-linecap:round;stroke-linejoin:round;stroke-miterlimit:4;stroke-dasharray:none;stroke-opacity:1"
       d="M 593.08032,807.86213 C 690.51005,773.82474 792.81482,686.48753 801.23205,576.8699 812.73479,427.06971 720.58431,321.98291 511.99999,325.38859 303.41568,328.79426 213.71393,428.0311 222.76794,576.8699 c 6.509,107.00146 103.49038,192.58836 198.53009,228.32787"
       id="path1221" /><path
       id="path1008"
       style="display:inline;opacity:1;fill:none;stroke:#000000;stroke-width:71.34294291;stroke-linecap:round;stroke-linejoin:miter;stroke-miterlimit:4;stroke-dasharray:none;stroke-opacity:1"
       d="m 339.72919,769.2467 -54.54422,72.22481 m 399.08582,-72.22481 54.54423,72.22481 M 263.68341,697.82002 175.92752,733.64353 m 579.85765,-35.82351 87.7559,35.82351"
       inkscape:connector-curvature="0"
       inkscape:label="whiskers"
       sodipodi:nodetypes="cccccccc"
       sodipodi:insensitive="true" /><path
       style="display:inline;opacity:1;fill:none;fill-opacity:1;stroke:#000000;stroke-width:71.34294291;stroke-linecap:round;stroke-linejoin:round;stroke-miterlimit:4;stroke-dasharray:none;stroke-opacity:1"
       d="m 512.00082,713.08977 c -45.86417,0 -75.13006,31.84485 -74.14159,71.10084 1.07048,42.51275 32.46865,71.10323 74.14159,71.10323 41.67296,0 74.05118,-32.99608 74.14161,-71.10323 0.0932,-39.26839 -28.27742,-71.10084 -74.14161,-71.10084 z"
       id="path1115"
       inkscape:connector-curvature="0"
       inkscape:label="nose"
       sodipodi:nodetypes="zszsz"
       sodipodi:insensitive="true" /></g></svg>
