<?xml version="1.0" encoding="UTF-8" standalone="no"?>
<svg
   width="192"
   height="192"
   viewBox="0 0 192 192"
   fill="none"
   version="1.1"
   id="svg6"
   sodipodi:docname="milktea.svg"
   xml:space="preserve"
   inkscape:version="1.2.2 (b0a8486541, 2022-12-01)"
   xmlns:inkscape="http://www.inkscape.org/namespaces/inkscape"
   xmlns:sodipodi="http://sodipodi.sourceforge.net/DTD/sodipodi-0.dtd"
   xmlns="http://www.w3.org/2000/svg"
   xmlns:svg="http://www.w3.org/2000/svg"><defs
     id="defs10" /><sodipodi:namedview
     id="namedview8"
     pagecolor="#ffffff"
     bordercolor="#000000"
     borderopacity="0.25"
     inkscape:showpageshadow="2"
     inkscape:pageopacity="0.0"
     inkscape:pagecheckerboard="0"
     inkscape:deskcolor="#d1d1d1"
     showgrid="false"
     inkscape:zoom="2.0903769"
     inkscape:cx="165.042"
     inkscape:cy="77.019602"
     inkscape:window-width="2256"
     inkscape:window-height="1435"
     inkscape:window-x="0"
     inkscape:window-y="0"
     inkscape:window-maximized="1"
     inkscape:current-layer="svg6" /><g
     id="g2060"
     transform="translate(2.6420326,2.0338946)"><g
       id="g2065"
       transform="translate(0,4.2304803)"><path
         style="fill:none;stroke:#000000;stroke-width:8;stroke-linecap:round;stroke-linejoin:round;stroke-dasharray:none;stroke-opacity:1;paint-order:stroke fill markers"
         d="m 145.59575,64.199508 c -12.6179,-5.983289 -9.5121,-25.906653 1.127,-29.963028 10.6391,-4.056375 20.02879,7.784287 19.52569,15.860019 -0.5031,8.075732 -8.03479,20.086298 -20.65269,14.103009 z"
         id="path2051"
         sodipodi:nodetypes="cccc" /><path
         style="fill:none;stroke:#000000;stroke-width:8;stroke-dasharray:none;stroke-opacity:1;stroke-linecap:round;stroke-linejoin:round"
         d="m 145.80655,143.94852 -5e-5,-6e-5 c -7.91554,-4.82617 -8.50693,-7.19761 -8.50693,-34.11225 0,-26.914661 0.59139,-29.286109 8.50693,-34.112274 26.89301,-8.752417 23.18439,15.987964 23.16532,34.112294 0.16187,18.68313 -0.12874,39.34847 -23.16527,34.11229 z"
         id="path2055"
         sodipodi:nodetypes="cccccc" /><path
         style="display:inline;fill:none;stroke:#000000;stroke-width:8;stroke-linecap:round;stroke-linejoin:round;stroke-dasharray:none;stroke-opacity:1"
         d="m 17.063878,52.051862 c -0.145004,-5.842191 6.599818,-12.107201 14.273284,-13.257909 8.910741,-1.336249 13.332987,1.303591 25.068666,14.964624 12.263854,14.275863 14.271664,16.163192 16.347543,15.366601 0.869873,-0.333799 6.53323,-6.448181 12.585238,-13.58751 6.05201,-7.139331 12.591345,-13.819203 14.531852,-14.844161 4.840199,-2.556545 14.727039,-2.30927 19.516849,0.488126 4.68811,3.369621 8.51785,7.338729 9.3829,12.736287 -0.22472,26.675898 -0.44945,53.3518 -0.67417,80.02769 l -2.82381,3.95926 c -3.16023,4.43094 -10.62651,8.32449 -16.03807,8.3636 -4.76878,0.0344 -13.350797,-4.47192 -16.351245,-8.58601 -1.879657,-2.5773 -2.513709,-5.53566 -2.835681,-13.23074 -0.228086,-5.45116 -0.790608,-9.91119 -1.250052,-9.91119 -0.459444,0 -2.364541,1.59612 -4.23355,3.54695 -6.782554,7.07946 -17.712921,7.25442 -25.294536,0.40489 -2.405823,-2.17351 -4.707,-3.95184 -5.113731,-3.95184 -0.40673,0 -0.739509,4.15557 -0.739509,9.23461 0,11.13676 -2.471209,15.7921 -10.549265,19.87302 -6.341229,3.20347 -10.816716,3.30621 -17.226473,0.39545 -6.018061,-2.7329 -8.713753,-6.45124 -8.57624,-11.82975 l 0.106069,-40.018589 z"
         id="path1317"
         sodipodi:nodetypes="sssssscccscsssssssssscs" /></g></g></svg>
